<?xml version="1.0" standalone="no"?>
<!DOCTYPE svg PUBLIC "-//W3C//DTD SVG 20010904//EN"
 "http://www.w3.org/TR/2001/REC-SVG-20010904/DTD/svg10.dtd">
<svg version="1.0" xmlns="http://www.w3.org/2000/svg"
 width="810.000000pt" height="1080.000000pt" viewBox="0 0 810.000000 1080.000000"
 preserveAspectRatio="xMidYMid meet">
<metadata>
Created by potrace 1.16, written by Peter Selinger 2001-2019
</metadata>
<g transform="translate(0.000000,1080.000000) scale(0.100000,-0.100000)"
fill="#000000" stroke="none">
<path d="M0 10595 l0 -205 24 0 c14 0 28 5 31 10 3 6 14 10 23 10 9 0 29 6 43
14 27 14 132 32 159 28 8 -2 26 -5 40 -7 14 -2 43 -10 65 -19 22 -8 48 -15 58
-16 9 0 17 -4 17 -10 0 -5 11 -10 24 -10 14 0 28 -4 31 -10 3 -5 15 -10 25
-10 10 0 23 -6 27 -13 9 -15 63 -40 70 -33 3 3 23 -6 44 -20 21 -13 43 -24 48
-24 18 0 90 -79 93 -103 5 -31 -8 -76 -29 -99 -9 -10 -37 -28 -61 -38 -31 -14
-43 -24 -38 -35 3 -8 1 -15 -5 -15 -7 0 -9 -10 -4 -27 4 -16 8 -33 9 -39 2
-11 7 -18 56 -74 42 -48 40 -75 -4 -76 -31 0 -34 1 -24 19 7 14 7 17 -1 13 -6
-4 -22 5 -35 19 -16 17 -39 29 -66 32 -35 5 -40 8 -35 27 4 14 3 17 -3 8 -7
-10 -14 -8 -34 8 -15 11 -36 20 -47 20 -12 0 -21 6 -21 15 0 8 -8 15 -17 15
-10 0 -29 9 -43 20 -30 24 -55 25 -94 5 -15 -8 -36 -15 -46 -15 -10 0 -20 -7
-24 -15 -7 -18 -47 -20 -64 -3 -7 7 -26 13 -43 14 -17 1 -43 11 -58 22 -15 11
-41 23 -59 27 l-32 7 0 -951 0 -951 28 0 c15 0 40 7 56 15 34 18 136 20 221 4
33 -7 89 -13 125 -15 36 -2 66 -4 68 -5 1 -1 5 -2 10 -4 4 -1 14 -5 23 -9 9
-4 35 -5 57 -2 35 4 43 1 56 -19 15 -23 21 -24 104 -22 48 2 96 8 107 14 18 9
29 9 78 5 9 -1 17 -8 17 -16 0 -12 7 -12 38 -4 20 5 44 16 52 23 21 19 170 8
170 -12 0 -8 8 -13 18 -11 11 2 17 -3 17 -16 0 -23 -58 -56 -97 -56 -16 0 -28
-4 -28 -10 0 -5 -11 -10 -25 -10 -22 0 -65 -30 -65 -45 0 -3 0 -8 0 -12 0 -5
-4 -2 -9 6 -8 12 -12 12 -25 -2 -9 -8 -16 -20 -16 -26 0 -6 -12 -17 -28 -25
-24 -13 -25 -15 -6 -16 12 0 25 -10 32 -25 12 -26 26 -32 37 -15 7 12 84 2
102 -12 13 -11 97 -13 112 -3 13 7 101 -32 101 -45 0 -11 42 -40 62 -44 22 -3
88 -50 88 -63 0 -25 170 -28 185 -3 3 4 13 6 23 3 13 -3 24 7 40 36 13 22 33
48 45 57 l22 16 -22 -5 c-14 -3 -20 -1 -17 8 6 14 54 8 54 -7 0 -5 8 -8 18 -7
9 1 29 -1 45 -6 19 -5 40 -1 72 14 25 12 52 21 60 21 8 0 21 16 29 35 8 19 19
35 24 35 5 0 12 8 15 19 5 21 51 33 66 18 6 -6 11 -22 11 -35 0 -15 4 -21 12
-16 8 5 9 2 5 -11 -4 -9 -2 -24 4 -31 8 -10 8 -14 0 -14 -6 0 -11 -13 -11 -30
0 -16 -5 -30 -11 -30 -6 0 -8 -9 -4 -20 4 -12 1 -27 -5 -35 -9 -11 -8 -21 4
-46 9 -18 16 -37 16 -43 0 -13 28 -39 62 -57 30 -16 49 -41 43 -57 -3 -7 7
-18 23 -25 16 -7 27 -17 25 -22 -2 -7 25 -12 68 -14 82 -3 98 -13 96 -62 -2
-30 1 -34 25 -37 18 -2 28 2 32 15 9 27 51 43 89 33 83 -21 97 -21 97 1 0 11
13 32 30 46 29 24 41 63 20 63 -5 0 -10 20 -10 45 0 32 4 45 14 45 8 0 20 2
28 3 7 2 9 2 5 -1 -5 -2 1 -11 13 -19 16 -11 19 -18 10 -23 -9 -6 -5 -13 15
-26 21 -14 28 -15 35 -4 4 7 13 9 19 6 6 -4 14 0 17 8 3 9 14 16 23 16 9 0 37
18 61 39 38 34 42 41 31 55 -11 13 -11 17 3 22 9 3 14 10 11 14 -3 5 4 11 15
15 11 3 20 10 20 14 0 4 10 18 22 31 16 17 24 41 28 83 3 32 2 61 -2 63 -13 8
16 114 32 114 10 0 2 327 -10 387 -6 29 -12 66 -12 83 -1 16 -5 30 -10 30 -10
0 -8 237 3 267 9 24 -7 83 -25 96 -8 5 -6 10 4 16 11 8 14 29 11 93 -1 46 -6
84 -11 86 -4 2 -4 16 0 33 5 16 6 29 2 29 -4 0 4 6 17 13 13 6 29 21 35 32 6
11 17 24 24 28 6 4 12 15 12 23 0 23 39 94 55 101 10 3 13 13 9 27 -6 24 9 41
72 85 46 33 64 79 37 96 -35 22 -51 41 -57 66 -5 25 -2 28 49 44 30 9 53 21
49 26 -3 5 2 9 11 9 9 0 13 5 10 10 -3 6 -15 10 -26 10 -10 0 -19 6 -19 14 0
31 -61 38 -109 14 -21 -11 -26 -10 -47 17 -12 16 -21 32 -19 35 2 4 29 7 60 8
66 2 78 8 72 33 -3 10 -1 22 4 25 5 3 9 14 9 25 0 20 -4 21 -80 24 -25 1 -75
6 -112 10 -60 7 -68 6 -68 -9 0 -20 -14 -21 -30 -1 -7 8 -19 15 -26 15 -8 0
-14 4 -14 9 0 5 -9 12 -19 16 -13 4 -18 12 -14 21 4 10 1 14 -8 13 -24 -5 -59
24 -59 49 0 12 -7 25 -15 28 -8 4 -15 14 -15 24 0 10 -9 22 -20 25 -11 3 -20
13 -20 21 0 15 -61 84 -74 84 -6 0 -12 5 -72 58 -17 15 -40 33 -50 40 -21 14
-120 62 -127 62 -13 0 -162 74 -165 82 -2 4 -10 8 -18 8 -8 0 -51 19 -97 41
-116 59 -137 67 -182 74 -22 4 -47 9 -55 12 -18 7 -20 8 -83 22 -62 15 -113
36 -133 56 -9 8 -23 15 -33 15 -9 0 -21 4 -27 10 -5 5 -43 12 -84 15 -83 5
-164 27 -191 51 -10 9 -23 13 -29 9 -6 -4 -22 1 -36 10 -14 9 -28 14 -32 11
-3 -3 -15 0 -27 8 -12 8 -42 20 -66 26 -24 6 -57 21 -74 33 -30 22 -31 22
-617 25 l-588 3 0 -206z m1007 -1887 c29 -32 53 -82 53 -111 0 -31 36 -139 66
-199 13 -26 24 -53 24 -59 0 -34 -91 -54 -108 -24 -7 13 -14 14 -36 5 -15 -5
-38 -10 -52 -10 -19 0 -23 5 -21 22 1 17 -5 24 -28 29 -16 4 -24 7 -17 8 6 0
12 6 12 11 0 14 -43 13 -58 -2 -9 -9 -16 -8 -30 5 -10 9 -21 14 -24 11 -4 -3
-34 8 -67 24 -51 25 -67 28 -98 22 -38 -9 -57 -5 -48 10 3 4 -2 11 -11 14 -11
4 -14 17 -12 43 2 31 10 42 43 64 22 14 59 33 82 42 24 9 57 29 73 44 55 50
109 72 176 73 50 0 64 -4 81 -22z m1327 -320 c35 -15 41 -58 21 -138 -9 -36
-19 -76 -21 -90 -3 -14 -12 -39 -20 -57 -8 -17 -14 -37 -14 -45 0 -7 -10 -29
-22 -48 -12 -19 -22 -39 -23 -45 -2 -33 -18 -55 -35 -50 -11 4 -20 -1 -25 -12
-6 -16 -8 -15 -19 6 -13 24 -66 40 -66 19 0 -6 -6 -6 -15 2 -13 11 -14 15 -1
29 26 30 29 58 6 64 -11 3 -20 0 -20 -6 0 -6 -3 -7 -7 -3 -4 4 3 16 17 26 l25
19 -24 22 c-15 14 -20 24 -13 27 14 4 16 32 3 32 -6 0 -13 -4 -16 -10 -8 -14
-65 -12 -91 3 -16 9 -20 17 -14 33 11 28 129 60 137 37 7 -19 56 -8 103 21 19
12 43 25 53 29 15 6 18 16 16 50 -3 44 14 97 30 97 6 0 21 -5 35 -12z"/>
<path d="M7027 10778 c2 -13 13 -39 23 -58 10 -19 23 -62 30 -95 7 -33 17 -63
22 -66 6 -4 12 -30 14 -59 2 -29 8 -66 13 -84 32 -99 44 -144 65 -245 13 -61
20 -111 14 -111 -5 0 -6 -9 -3 -20 3 -11 2 -20 -2 -20 -9 0 -43 -68 -43 -86 0
-12 -56 -64 -69 -64 -6 0 -11 -5 -11 -11 0 -18 -30 -41 -46 -35 -9 3 -36 9
-60 11 -34 5 -44 2 -44 -8 0 -8 -14 -21 -32 -30 -31 -15 -32 -15 -62 19 -17
20 -39 34 -53 34 -14 0 -23 6 -23 15 0 8 -9 15 -20 15 -10 0 -24 9 -30 20 -7
13 -21 20 -41 20 -17 0 -39 5 -50 11 -28 14 -120 -15 -149 -48 -20 -24 -24
-24 -118 -19 -53 3 -205 7 -337 9 -191 3 -256 7 -320 22 -113 27 -322 35 -365
15 -7 -3 -31 -6 -64 -8 -19 -1 -43 -16 -72 -45 -47 -47 -73 -63 -121 -72 -18
-4 -33 -11 -33 -17 0 -6 -7 -8 -15 -4 -8 3 -15 0 -15 -6 0 -6 -3 -9 -6 -5 -8
8 -65 -13 -87 -32 -17 -14 -21 -14 -45 -1 -33 18 -96 15 -88 -5 5 -13 -46 -27
-84 -23 -8 0 -28 0 -44 0 -23 -2 -27 -5 -18 -14 22 -22 13 -28 -38 -28 -49 0
-79 11 -108 38 -20 18 -68 12 -62 -8 6 -21 5 -79 -2 -85 -3 -3 -21 -8 -40 -11
-29 -5 -39 -1 -67 27 -27 27 -40 32 -79 32 -88 0 -100 -8 -101 -70 -1 -23 5
-36 20 -44 17 -9 19 -13 8 -20 -18 -11 -2 -11 36 0 17 4 39 5 50 0 18 -7 17
-8 -7 -8 -45 -1 -43 -21 1 -21 32 0 41 4 42 18 0 14 2 14 9 -3 13 -31 12 -38
-10 -32 -23 6 -42 -13 -31 -32 5 -8 30 -13 65 -13 48 -1 56 -3 56 -19 0 -11 6
-19 14 -19 25 0 29 -21 7 -37 -17 -12 -20 -18 -10 -29 8 -10 8 -14 0 -14 -16
0 -14 -25 4 -40 10 -9 15 -9 15 -1 0 6 5 11 11 11 6 0 8 -7 5 -16 -4 -11 1
-18 14 -21 24 -6 25 -18 5 -56 -13 -25 -13 -30 0 -44 8 -8 13 -18 10 -23 -3
-5 4 -15 16 -24 27 -19 33 -61 14 -102 -12 -26 -19 -61 -39 -210 -2 -17 -15
-49 -30 -72 -14 -23 -26 -48 -26 -55 0 -7 -16 -50 -35 -94 -30 -69 -48 -132
-70 -243 -3 -14 -10 -48 -16 -76 -10 -42 -9 -56 5 -82 9 -17 16 -50 16 -74 0
-24 5 -70 10 -103 17 -95 23 -148 22 -180 0 -16 2 -37 5 -45 11 -25 14 -52 16
-115 1 -33 5 -64 8 -70 4 -5 10 -31 13 -57 4 -26 11 -50 17 -53 5 -4 9 -22 9
-41 0 -21 4 -33 10 -29 6 3 10 2 10 -3 0 -21 48 -62 80 -68 19 -3 57 -17 84
-31 29 -16 64 -26 85 -25 44 2 101 -18 101 -35 0 -7 6 -10 13 -7 7 2 24 -7 37
-21 13 -14 29 -25 37 -25 7 0 12 -6 10 -12 -1 -8 12 -14 36 -16 20 -2 35 -7
32 -13 -4 -5 0 -10 7 -11 7 0 18 -2 23 -3 6 -2 16 -3 23 -4 7 0 17 -12 23 -25
7 -14 22 -27 35 -30 13 -4 23 -12 21 -18 -3 -17 95 -10 109 8 6 8 19 14 28 14
9 0 16 5 16 10 0 6 -5 10 -11 10 -7 0 0 12 15 27 27 27 27 27 6 35 -14 5 -20
14 -16 23 3 8 1 17 -4 20 -6 4 -10 13 -10 21 0 9 -7 22 -15 31 -31 30 -12 34
98 17 66 -10 127 18 127 59 0 18 5 27 15 27 10 0 15 7 13 18 -2 14 4 17 32 15
66 -3 120 -14 115 -24 -4 -5 1 -9 9 -9 9 0 16 5 16 10 0 14 47 13 52 -1 4 -11
143 -31 175 -25 62 11 142 20 169 17 23 -2 44 8 79 34 40 31 53 36 83 32 19
-4 39 -13 46 -22 6 -9 31 -19 54 -22 23 -3 45 -10 48 -14 15 -25 83 2 110 44
11 15 34 36 52 47 28 17 40 18 83 10 28 -6 55 -8 59 -5 5 3 11 1 15 -4 8 -14
82 12 97 34 3 6 26 10 50 9 58 -1 117 -37 125 -75 3 -16 9 -29 14 -29 5 0 9
-13 9 -30 0 -16 6 -33 13 -37 7 -4 21 -28 31 -53 10 -25 25 -59 32 -77 8 -17
14 -36 14 -42 0 -6 4 -11 8 -11 4 0 8 -8 9 -17 0 -10 13 -63 28 -118 15 -55
28 -116 30 -135 2 -19 9 -78 16 -130 11 -89 9 -182 -5 -240 -3 -14 -13 -58
-23 -97 -14 -63 -19 -73 -37 -72 -17 1 -18 2 -3 6 9 2 17 9 17 14 0 6 -9 7
-20 4 -17 -5 -20 -2 -22 27 0 18 0 43 1 56 1 12 -3 22 -9 22 -5 0 -10 7 -10
15 0 8 5 15 10 15 17 0 12 133 -5 155 -8 11 -25 36 -38 55 -37 57 -103 74
-114 28 -3 -10 -9 -18 -14 -18 -5 0 -9 -7 -9 -15 0 -12 -12 -14 -65 -12 l-65
4 0 -43 c0 -26 5 -44 14 -47 7 -3 17 -27 21 -52 3 -26 9 -54 13 -63 3 -10 1
-13 -6 -8 -7 4 -12 2 -12 -3 0 -6 -7 -11 -15 -11 -8 0 -15 -7 -15 -15 0 -8 6
-15 13 -15 10 0 14 -21 15 -76 2 -44 -1 -73 -7 -70 -15 10 -23 -25 -28 -127
-3 -65 -1 -102 7 -111 19 -24 2 -64 -28 -68 -15 -2 -27 -7 -28 -13 0 -5 -5
-22 -11 -36 -6 -14 -17 -44 -24 -67 -8 -28 -18 -42 -29 -42 -17 0 -60 -40 -44
-40 5 -1 -6 -7 -25 -15 -31 -14 -33 -18 -27 -47 3 -18 11 -35 16 -38 14 -9 22
-111 9 -126 -6 -7 -8 -17 -6 -22 3 -4 -10 -28 -30 -52 -19 -25 -42 -58 -50
-75 -9 -16 -24 -36 -35 -43 -10 -8 -30 -25 -43 -38 -13 -13 -28 -24 -33 -24
-5 0 -15 -11 -22 -25 -8 -14 -18 -24 -24 -22 -6 2 -17 -3 -25 -10 -7 -8 -25
-13 -40 -12 -14 1 -39 -4 -54 -11 -35 -17 -103 -80 -86 -80 7 0 4 -9 -9 -22
-11 -13 -24 -35 -27 -50 -6 -23 -9 -25 -25 -15 -16 9 -23 7 -43 -15 -19 -21
-22 -28 -11 -32 27 -10 -7 -44 -51 -52 -22 -4 -43 -9 -47 -10 -5 -1 -21 -2
-37 -3 -16 0 -36 -8 -45 -16 -8 -8 -23 -15 -34 -15 -11 0 -22 -6 -25 -14 -4
-9 -14 -12 -26 -9 -23 6 -29 -12 -7 -20 8 -3 13 -20 12 -44 l-1 -38 -60 3
c-35 1 -74 -3 -96 -12 -40 -16 -179 -11 -179 6 0 18 -31 40 -50 35 -11 -3 -23
-1 -26 4 -3 5 -13 6 -22 1 -25 -11 -44 -8 -74 12 -15 10 -35 15 -45 12 -18 -6
-59 -66 -44 -66 4 0 13 -16 21 -35 9 -24 16 -31 22 -23 5 9 8 8 8 -4 0 -10 7
-18 16 -18 9 0 14 -6 11 -12 -5 -16 20 -68 33 -68 6 0 10 -5 10 -11 0 -12 25
-39 37 -39 4 0 21 -12 38 -26 16 -14 44 -32 62 -41 31 -14 33 -18 33 -68 0
-50 2 -54 36 -74 19 -12 43 -21 52 -22 14 0 13 -2 -3 -9 -11 -5 -15 -9 -8 -9
6 -1 16 -14 22 -31 8 -24 16 -30 40 -30 25 0 31 -4 31 -22 0 -13 6 -35 14 -50
8 -15 17 -41 21 -59 11 -48 27 -60 64 -49 33 9 101 -4 101 -20 0 -6 20 -10 44
-10 53 0 83 -10 113 -39 12 -12 26 -21 32 -21 5 0 11 -5 13 -11 2 -6 25 -11
51 -12 37 -2 47 -6 47 -19 0 -10 5 -15 13 -13 15 7 23 -100 8 -110 -6 -3 -11
-15 -11 -26 0 -10 -4 -19 -8 -19 -4 0 -8 -10 -9 -21 -1 -12 -9 -29 -18 -39
-10 -11 -14 -23 -11 -28 3 -5 -1 -32 -10 -58 -33 -106 -42 -151 -40 -192 2
-33 0 -42 -11 -38 -9 4 -13 -3 -13 -22 0 -21 -2 -24 -10 -12 -8 12 -10 9 -10
-12 0 -16 -4 -28 -9 -28 -5 0 -12 -10 -16 -22 -11 -40 -28 -68 -41 -68 -7 0
-36 -22 -64 -50 -38 -37 -52 -46 -56 -35 -4 8 -12 15 -20 15 -8 0 -14 7 -14
16 0 8 -5 12 -11 8 -12 -7 -7 54 6 77 5 8 5 11 1 7 -9 -8 -46 22 -46 38 0 7
-17 15 -37 19 -21 4 -46 14 -55 22 -9 8 -21 13 -26 10 -4 -3 -19 4 -33 16 -13
12 -35 28 -49 34 l-25 12 22 7 c13 3 20 10 17 16 -3 5 0 15 6 23 7 8 10 26 8
39 -4 19 -1 22 15 18 14 -3 18 -1 13 6 -4 7 -14 12 -22 12 -9 0 -14 11 -14 33
0 20 -8 39 -20 50 -11 9 -23 31 -27 47 -3 17 -10 30 -15 30 -5 0 -8 6 -6 13 6
27 -67 84 -123 97 -30 7 -73 26 -97 41 -24 16 -50 29 -58 29 -7 0 -14 5 -14
10 0 6 -6 10 -14 10 -7 0 -30 16 -51 35 -20 20 -51 42 -69 49 -44 19 -121 96
-130 129 -3 15 -15 35 -25 44 -11 9 -17 22 -14 29 3 10 -3 14 -20 14 -14 0
-32 6 -39 13 -25 24 -58 8 -58 -29 0 -15 -6 -24 -15 -24 -8 0 -15 -9 -15 -20
0 -11 -7 -23 -15 -26 -8 -4 -15 -12 -15 -20 0 -8 -4 -14 -10 -14 -5 0 -10 -7
-10 -16 0 -21 -29 -71 -58 -100 -12 -13 -22 -30 -22 -39 0 -32 -49 -72 -105
-85 -70 -17 -387 -4 -495 19 -25 5 -63 13 -85 16 -22 4 -44 10 -50 14 -16 13
-131 32 -193 33 -66 0 -270 -51 -347 -87 -66 -32 -78 -31 -134 3 -25 15 -66
34 -91 42 -25 7 -49 17 -55 20 -5 4 -44 17 -85 30 -41 12 -80 26 -86 31 -20
17 -147 40 -184 34 -50 -8 -404 -17 -610 -15 -345 3 -368 16 -344 193 5 34 12
47 30 56 13 6 24 17 24 26 0 8 5 15 10 15 6 0 5 8 -2 20 -11 17 -9 23 15 45
28 27 32 37 19 49 -4 4 -7 13 -7 19 0 7 -10 13 -22 15 -13 2 -23 10 -23 18 0
8 -9 14 -20 14 -11 0 -23 8 -26 18 -13 41 -21 47 -70 48 -27 0 -60 6 -74 14
-36 20 -73 17 -98 -8 -12 -12 -31 -22 -41 -22 -11 0 -23 -4 -26 -10 -3 -5 -17
-10 -30 -10 -27 0 -65 -27 -65 -47 0 -7 -11 -13 -25 -13 -14 0 -25 -4 -25 -8
0 -5 -26 -10 -58 -12 -31 -2 -69 -4 -84 -5 -16 -2 -37 -3 -47 -4 -16 -1 -21
-14 -31 -71 -6 -38 -9 -74 -5 -79 10 -18 -43 -25 -60 -8 -11 12 -12 17 -2 20
6 2 9 7 6 10 -3 4 -20 1 -38 -6 -30 -11 -33 -10 -64 24 -46 50 -61 79 -48 92
6 6 11 29 11 52 0 59 9 81 36 94 13 6 24 16 24 23 1 18 80 73 110 75 74 6 83
16 101 118 7 41 17 75 21 75 4 0 8 7 8 15 0 8 -6 15 -13 15 -8 0 -13 10 -12
22 1 13 -4 33 -12 44 -12 19 -11 29 7 78 12 31 25 56 30 56 21 0 129 83 156
120 16 22 33 40 37 40 5 0 5 5 2 10 -3 6 -4 10 0 10 3 0 10 -12 15 -26 8 -20
16 -25 36 -22 37 4 51 42 24 66 -32 27 -27 81 13 123 37 41 72 62 105 64 13 0
27 7 31 14 5 8 14 10 21 6 9 -5 11 -4 6 3 -4 7 -1 12 9 12 8 0 24 5 34 11 23
15 77 3 63 -14 -5 -7 -12 -29 -15 -50 -6 -35 -4 -38 31 -53 20 -9 52 -16 70
-16 23 0 32 -5 33 -16 0 -11 2 -12 6 -4 7 18 74 15 115 -6 32 -17 41 -17 84
-6 55 15 97 17 108 7 3 -4 17 -8 29 -10 12 -2 31 -7 42 -12 11 -6 54 -17 95
-26 41 -9 88 -23 104 -31 16 -8 35 -14 43 -14 7 0 21 -4 31 -9 9 -5 53 -24 97
-41 44 -17 98 -40 121 -51 22 -10 58 -19 80 -19 51 0 85 -30 113 -100 12 -30
33 -76 47 -101 31 -60 35 -108 12 -131 -10 -10 -23 -18 -29 -18 -20 0 -1 -97
26 -137 28 -40 55 -57 107 -67 42 -8 62 -28 55 -56 -4 -15 0 -20 13 -20 12 0
26 -14 36 -35 9 -20 25 -40 35 -46 11 -5 19 -16 19 -24 0 -33 64 -72 172 -105
45 -14 103 7 117 42 15 37 84 104 116 112 17 4 47 12 68 17 l38 10 -7 47 c-3
26 -10 52 -14 57 -11 14 2 166 17 205 3 8 5 21 4 29 -2 11 6 12 38 7 55 -8 78
5 136 80 47 60 54 65 107 76 31 6 54 16 51 21 -3 5 0 7 8 5 8 -3 25 3 39 12
26 18 105 43 171 54 63 11 136 54 205 121 37 36 71 65 77 65 13 0 107 80 169
144 59 61 86 115 92 188 5 49 2 64 -24 112 -16 30 -42 75 -57 98 -16 24 -41
68 -56 99 -26 54 -28 56 -84 69 -32 7 -109 14 -172 17 -110 4 -115 3 -178 -26
-35 -17 -73 -31 -84 -31 -12 0 -42 14 -67 31 -34 23 -52 29 -71 24 -14 -3 -37
-9 -50 -12 -14 -3 -39 -16 -57 -28 -28 -19 -39 -21 -81 -13 -26 4 -70 11 -97
14 -30 3 -57 14 -70 27 -37 37 -106 65 -216 88 -58 11 -128 30 -157 40 -28 11
-64 21 -80 23 -15 3 -59 12 -97 22 -62 15 -80 16 -179 5 -61 -7 -118 -17 -126
-21 -29 -14 -87 -30 -109 -30 -12 0 -30 -4 -40 -9 -29 -15 -206 -71 -225 -71
-9 0 -36 -12 -60 -27 -28 -17 -59 -27 -95 -30 -37 -3 -66 -12 -94 -30 -81 -54
-158 -20 -158 68 0 73 58 220 121 306 41 57 127 143 142 143 4 0 7 4 7 9 0 15
63 81 77 81 7 0 13 5 13 10 0 6 7 10 15 10 18 0 87 59 80 70 -3 4 2 13 10 20
8 6 19 28 26 48 7 20 20 44 31 53 10 9 18 20 18 25 0 11 71 60 82 57 4 -2 7 1
5 6 -1 5 6 16 16 23 9 7 20 29 23 49 5 31 1 41 -26 73 -18 20 -35 34 -38 31
-3 -3 -13 2 -23 11 -11 10 -28 15 -44 12 -17 -4 -25 -1 -25 8 0 17 -12 18 -27
3 -8 -8 -13 -8 -17 0 -13 21 -24 11 -22 -19 2 -26 -1 -30 -22 -30 -15 0 -22
-5 -19 -12 5 -13 11 -14 37 -4 17 7 41 -36 30 -53 -3 -6 -35 -16 -71 -22 -40
-7 -70 -18 -79 -30 -8 -10 -44 -26 -80 -35 -55 -14 -72 -24 -112 -65 -25 -27
-50 -61 -55 -76 -7 -19 -20 -31 -40 -37 -17 -4 -34 -17 -36 -27 -3 -11 -12
-19 -21 -19 -9 0 -16 -7 -16 -14 0 -8 -12 -21 -27 -28 -17 -8 -29 -23 -31 -38
-4 -30 -71 -102 -89 -96 -7 3 -13 0 -13 -7 0 -11 -44 -45 -129 -99 -14 -9 -32
-22 -39 -28 -7 -6 -17 -8 -22 -5 -6 4 -13 -1 -16 -9 -3 -9 -11 -16 -18 -16 -6
0 -24 -18 -40 -40 -17 -22 -36 -40 -43 -40 -7 0 -13 -5 -13 -11 0 -15 -22 -35
-49 -44 -14 -4 -20 -12 -17 -21 4 -10 -3 -14 -23 -14 -39 0 -61 -9 -61 -26 0
-8 -7 -14 -15 -14 -8 0 -15 -4 -15 -10 0 -5 6 -10 14 -10 24 0 6 -38 -25 -52
-16 -7 -29 -16 -29 -20 0 -5 -7 -8 -15 -8 -8 0 -15 -4 -15 -9 0 -5 -15 -13
-33 -16 -17 -4 -36 -11 -42 -15 -5 -4 -28 -13 -50 -20 -67 -21 -98 -48 -93
-81 3 -19 0 -29 -8 -29 -7 0 -18 -9 -24 -20 -6 -11 -21 -20 -34 -20 -13 0 -29
-7 -36 -15 -7 -8 -19 -15 -27 -15 -8 0 -12 -4 -8 -9 3 -5 -5 -11 -17 -13 -16
-2 -24 -11 -28 -32 -4 -22 -12 -32 -34 -37 -16 -5 -33 -6 -38 -3 -4 3 -8 0 -8
-5 0 -6 -11 -11 -25 -11 -17 0 -29 -7 -35 -22 -5 -13 -9 -17 -9 -10 -1 10 -5
10 -17 -2 -8 -9 -26 -16 -38 -16 -55 0 -86 -13 -108 -46 -13 -19 -29 -34 -35
-34 -7 0 -13 -4 -13 -9 0 -4 -16 -11 -35 -14 -20 -3 -50 -18 -67 -32 -30 -25
-33 -26 -45 -9 -16 22 -16 35 -1 71 6 15 10 36 9 47 -2 10 3 23 11 27 9 6 2 9
-19 9 -18 0 -36 -6 -40 -13 -15 -25 -81 -49 -102 -37 -11 5 -30 10 -44 10 -28
0 -72 -43 -64 -63 3 -8 1 -19 -5 -25 -7 -7 -4 -18 7 -36 10 -14 13 -26 7 -26
-6 0 -8 -9 -5 -20 4 -15 0 -20 -16 -20 l-21 0 0 -680 c0 -643 1 -681 18 -678
11 2 17 -3 16 -14 -1 -13 4 -16 26 -12 40 8 46 -12 8 -25 -41 -14 -68 -39 -68
-63 0 -19 34 -26 45 -8 4 6 11 8 16 4 5 -3 23 -2 40 1 22 5 31 14 35 34 5 24
10 27 50 29 25 1 70 9 100 18 37 10 74 14 108 10 28 -3 54 -6 59 -6 4 0 7 -9
7 -20 0 -11 7 -20 15 -20 8 0 15 -7 15 -15 0 -8 6 -25 13 -36 10 -17 9 -23
-10 -39 -13 -10 -23 -23 -23 -28 0 -16 -54 -24 -103 -17 -29 5 -47 3 -52 -4
-9 -15 26 -90 43 -91 6 0 12 -6 12 -14 0 -18 32 -76 43 -76 4 0 7 -11 7 -24 0
-30 -36 -76 -59 -76 -10 0 -31 -11 -47 -26 -24 -20 -35 -24 -64 -19 -19 3 -46
6 -60 7 -55 1 -61 -2 -56 -19 8 -26 -19 -57 -44 -50 -11 3 -23 1 -26 -4 -3 -5
-9 -7 -14 -4 -5 3 -18 0 -30 -7 -20 -13 -20 -21 -20 -381 0 -341 1 -368 18
-374 9 -3 40 -30 68 -60 28 -29 56 -53 61 -53 5 0 27 -20 47 -45 21 -24 46
-47 57 -50 11 -4 44 -29 74 -57 29 -27 73 -62 97 -77 24 -15 52 -38 63 -51 11
-12 44 -38 72 -56 29 -19 63 -45 75 -60 24 -26 103 -84 117 -84 4 0 20 -14 36
-30 16 -17 34 -30 40 -30 11 0 47 -30 138 -117 41 -39 55 -59 48 -66 -8 -8
-19 -5 -39 10 -32 24 -111 63 -127 63 -6 0 -33 18 -60 41 -27 22 -63 46 -79
54 -17 7 -49 30 -71 50 -22 19 -50 38 -62 41 -13 4 -23 10 -23 15 0 17 -139
101 -153 92 -4 -2 -10 3 -13 11 -3 9 -15 16 -25 16 -10 0 -19 5 -19 10 0 6 -7
10 -15 10 -8 0 -15 9 -15 20 0 11 -7 20 -15 20 -9 0 -29 14 -45 30 -17 17 -35
28 -40 25 -6 -3 -10 0 -10 8 0 19 -47 28 -54 11 -7 -17 -37 -8 -72 23 l-29 25
33 -7 c33 -7 33 -7 15 14 -18 22 -29 28 -18 11 3 -5 -3 -10 -14 -10 -11 0 -23
-4 -26 -10 -3 -6 -11 -10 -16 -10 -6 0 -7 5 -3 12 4 7 3 8 -4 4 -15 -9 -17
-346 -2 -346 18 0 104 -60 138 -97 19 -21 39 -38 46 -38 20 0 70 -32 99 -63
19 -20 35 -28 48 -25 10 3 19 0 19 -6 0 -6 10 -11 22 -11 12 0 18 -3 15 -6 -4
-4 15 -23 41 -43 67 -50 67 -51 124 -104 38 -36 57 -48 74 -44 14 2 25 -2 28
-9 3 -8 13 -14 21 -14 9 0 31 -11 48 -24 18 -13 48 -26 67 -30 19 -3 70 -31
115 -60 87 -59 212 -126 232 -126 7 0 13 -4 13 -10 0 -5 6 -10 14 -10 7 0 18
-6 24 -13 6 -7 22 -13 37 -15 31 -2 75 -30 75 -47 0 -7 6 -15 13 -18 6 -3 -1
-10 -18 -16 -35 -13 -73 -30 -97 -42 -10 -5 -24 -9 -32 -9 -8 0 -21 -6 -29
-14 -8 -8 -30 -21 -50 -29 -20 -9 -46 -27 -59 -42 -40 -46 -85 -68 -123 -61
-19 4 -35 10 -35 15 0 4 -23 17 -50 29 -28 12 -50 26 -50 31 0 5 -8 11 -17 15
-36 12 -82 44 -122 84 -23 23 -45 42 -50 42 -4 0 -20 11 -36 24 -15 13 -46 29
-69 36 -61 18 -86 32 -86 47 0 7 -8 17 -17 20 -9 4 -24 13 -32 20 -9 8 -33 29
-53 48 -21 18 -51 39 -68 46 -16 8 -30 20 -30 26 0 7 -7 13 -15 13 -8 0 -15 5
-15 11 0 5 -4 8 -8 5 -12 -7 -55 23 -86 60 -14 18 -37 34 -51 36 l-25 5 0
-783 0 -784 4050 0 4050 0 0 5124 c0 4525 -2 5125 -15 5136 -8 7 -13 16 -10
20 2 4 -3 16 -13 26 -9 10 -23 31 -30 45 -15 28 -19 140 -7 177 4 16 -3 42
-23 85 -16 34 -33 72 -36 85 -4 12 -15 22 -23 22 -9 0 -13 3 -10 7 4 3 2 12
-4 20 -6 7 -9 22 -6 33 5 20 1 20 -448 20 l-453 0 5 -22z m-314 -973 c47 -6
48 -6 26 -24 l-22 -18 43 -7 c24 -4 50 -12 57 -18 7 -6 23 -8 35 -5 26 7 48
-8 48 -34 0 -11 5 -19 10 -19 6 0 10 -11 10 -24 0 -18 8 -27 30 -35 17 -5 30
-16 30 -24 0 -8 11 -19 25 -25 14 -6 25 -18 25 -26 0 -8 6 -19 13 -23 22 -14
115 -217 120 -263 3 -25 0 -73 -7 -108 -12 -68 -35 -95 -88 -107 -16 -4 -28
-11 -28 -17 0 -7 -5 -7 -14 1 -7 6 -34 14 -59 17 -37 5 -52 2 -81 -16 -21 -12
-36 -30 -36 -41 0 -10 -7 -19 -15 -19 -8 0 -15 -7 -15 -15 0 -20 -69 -20 -96
0 -10 8 -14 15 -9 16 6 1 -6 4 -25 8 -26 5 -34 11 -32 24 2 13 -4 17 -26 17
-17 0 -32 -6 -36 -15 -8 -21 -94 -21 -102 0 -4 8 -9 13 -13 10 -4 -2 -19 2
-32 9 -22 11 -55 19 -124 31 -11 2 -47 4 -80 4 -76 1 -116 28 -117 80 -1 21 5
39 16 46 9 7 15 17 14 21 -6 18 28 52 60 59 21 4 36 15 42 30 5 13 14 26 20
30 5 3 8 11 4 16 -10 16 16 38 52 45 32 6 104 63 104 82 0 22 93 99 140 116
47 17 70 39 70 66 0 6 -5 8 -12 4 -7 -4 -8 -3 -4 5 4 7 -2 15 -16 21 -16 6 -7
7 35 3 45 -4 57 -3 57 8 0 12 2 12 9 0 5 -8 16 -11 26 -8 9 4 14 11 10 16 -3
6 2 14 10 19 14 7 12 10 -8 19 -25 12 -77 6 -77 -7 0 -5 10 -10 23 -12 14 -3
5 -7 -26 -12 -39 -7 -51 -5 -68 10 -15 13 -17 19 -7 26 10 6 5 15 -17 33 l-30
25 29 -2 c18 -2 33 4 39 14 7 11 16 13 26 7 9 -4 38 -11 64 -14z m-1084 -1764
c29 -31 40 -62 48 -141 2 -25 8 -65 12 -90 9 -53 -1 -68 -49 -73 -16 -2 -33
-7 -37 -10 -3 -4 -20 -6 -37 -6 -24 1 -26 3 -8 6 26 5 30 23 4 23 -31 0 -115
-28 -123 -41 -5 -9 -14 -8 -38 2 -17 8 -31 18 -31 23 0 4 -9 6 -20 3 -11 -3
-20 -1 -20 4 0 5 -6 9 -13 9 -7 0 -23 14 -37 30 -20 24 -33 30 -65 30 -22 0
-51 7 -65 15 -14 8 -32 17 -42 21 -12 5 -14 12 -8 34 5 16 6 31 3 33 -7 8 21
47 34 47 7 0 13 4 13 8 0 5 33 17 73 27 39 10 79 22 87 26 51 27 92 39 140 41
30 2 77 4 103 6 42 3 51 0 76 -27z m971 -3326 c0 -6 -4 -15 -9 -20 -5 -6 -12
-39 -15 -75 -10 -99 -18 -140 -27 -146 -5 -3 -9 -16 -9 -29 0 -13 -4 -27 -10
-30 -5 -3 -10 -23 -10 -44 0 -21 -6 -44 -14 -50 -8 -7 -17 -23 -20 -36 -4 -14
-11 -25 -16 -25 -6 0 -10 -7 -10 -16 0 -10 -6 -14 -14 -11 -9 4 -28 -11 -51
-38 -34 -43 -35 -46 -25 -85 12 -43 6 -175 -9 -227 -5 -18 -7 -33 -5 -33 3 0
2 -5 -2 -11 -3 -6 -7 -43 -6 -83 0 -39 -4 -78 -8 -86 -4 -8 -10 -40 -13 -71
-6 -51 -13 -80 -36 -134 -15 -37 -33 -90 -41 -124 -5 -19 -14 -37 -21 -41 -6
-4 -13 -27 -15 -51 -4 -41 -61 -174 -89 -209 -12 -14 -17 -33 -31 -104 -3 -16
-10 -40 -15 -53 -5 -14 -5 -33 2 -50 6 -15 7 -24 3 -21 -13 13 -54 -80 -54
-122 0 -48 12 -51 63 -16 60 41 85 38 84 -9 -1 -25 -5 -34 -14 -31 -8 3 -15
-5 -19 -20 -4 -16 -11 -23 -21 -20 -7 3 -16 -1 -19 -9 -4 -8 -19 -15 -34 -15
-16 0 -30 -7 -34 -15 -8 -21 -26 -19 -26 3 -1 15 -2 15 -10 1 -5 -8 -10 -26
-12 -40 -2 -13 -7 -30 -11 -36 -12 -19 7 -16 53 8 24 12 39 27 36 34 -3 8 5
13 20 13 14 0 36 10 50 23 20 18 29 21 42 13 22 -14 28 -44 9 -44 -8 0 -17 -6
-20 -14 -3 -8 -19 -17 -36 -21 -22 -5 -33 -14 -37 -31 -3 -13 -11 -24 -18 -24
-6 0 -20 -9 -29 -21 -10 -11 -25 -18 -33 -15 -17 7 -19 -15 -2 -32 7 -7 9 -12
5 -12 -16 0 -23 -2 -34 -12 -18 -15 -16 -28 5 -28 16 -1 16 -1 0 -11 -21 -12
-24 -49 -6 -67 9 -9 8 -12 -4 -12 -15 0 -46 -53 -62 -108 -7 -22 -43 -49 -60
-44 -5 2 -4 -3 2 -11 10 -12 7 -12 -22 -3 -19 6 -34 15 -33 21 3 14 -73 19
-86 6 -6 -6 -19 -11 -28 -11 -10 0 -35 -17 -56 -39 -23 -23 -52 -42 -73 -46
-19 -4 -55 -20 -79 -36 -25 -16 -50 -29 -57 -29 -7 0 -14 -4 -16 -10 -1 -5
-16 -11 -33 -12 -16 -1 -48 -14 -70 -28 -22 -15 -62 -37 -90 -50 -27 -13 -57
-33 -66 -44 -11 -13 -29 -19 -60 -20 -38 -1 -44 2 -47 22 -3 17 -8 21 -28 18
-13 -3 -24 0 -24 5 0 19 -30 8 -46 -16 -11 -17 -25 -25 -45 -25 -19 0 -29 -5
-29 -15 0 -17 -9 -19 -28 -6 -8 5 -12 15 -10 24 4 18 87 114 297 343 52 57
109 122 139 158 6 8 12 19 12 24 0 5 11 15 25 22 14 7 25 19 25 26 0 7 10 21
23 31 12 10 37 42 56 71 18 28 37 52 41 52 5 0 17 19 29 43 11 23 30 48 41 55
11 7 20 18 20 25 0 16 24 49 68 93 17 19 32 37 32 40 0 4 7 12 15 18 9 6 18
23 20 38 9 49 24 80 37 72 7 -5 8 -3 4 5 -5 8 -1 14 12 18 13 3 18 10 15 19
-6 17 15 46 28 38 5 -3 9 4 9 15 0 12 5 21 11 21 5 0 7 5 4 10 -4 6 -1 9 6 8
6 -2 20 19 29 47 10 27 28 57 40 67 15 13 20 24 15 40 -5 18 -4 20 4 8 9 -13
11 -13 11 3 0 9 6 17 13 18 8 0 9 2 0 5 -14 6 0 64 19 76 7 4 9 8 4 8 -5 0 1
8 12 19 12 10 19 21 16 24 -3 3 4 8 16 12 15 5 18 10 11 19 -7 9 -4 17 10 30
11 9 18 24 15 32 -3 8 -1 14 4 14 6 0 10 6 10 14 0 8 7 16 15 20 8 3 15 13 15
22 0 9 14 46 31 83 40 87 43 94 74 176 15 39 33 84 41 102 8 17 14 37 14 45 0
7 6 25 13 39 8 14 28 71 46 127 18 56 35 102 39 102 4 0 8 11 8 25 1 14 14 48
29 77 27 52 85 219 85 245 0 7 5 13 10 13 6 0 15 10 20 23 6 12 14 29 19 37 5
8 22 41 38 73 52 107 46 100 60 80 7 -9 13 -22 13 -28z m-1811 -1031 c46 -7
329 -196 409 -272 58 -56 62 -63 62 -104 0 -29 -7 -54 -19 -69 -35 -45 -37
-91 -3 -57 9 9 12 7 12 -10 0 -33 40 -102 66 -114 18 -8 21 -15 14 -28 -5 -9
-6 -21 -1 -26 13 -15 1 -104 -15 -104 -8 0 -14 -7 -14 -15 0 -8 -4 -15 -10
-15 -13 0 -13 -67 0 -75 6 -4 8 -19 6 -33 -2 -15 -5 -30 -5 -33 -1 -7 -46 -22
-66 -23 -5 -1 -10 8 -11 19 -3 74 -2 72 -39 70 -39 -1 -68 -23 -85 -66 -10
-24 -10 -33 4 -55 14 -20 15 -28 5 -40 -6 -8 -19 -13 -28 -12 -10 2 -15 -3
-13 -13 1 -9 -5 -20 -14 -23 -11 -4 -13 -10 -7 -19 17 -20 22 -59 12 -79 -8
-15 -6 -18 11 -18 11 0 20 -7 20 -15 0 -8 -8 -15 -18 -15 -10 0 -24 -9 -32
-20 -8 -11 -21 -20 -30 -21 -10 0 -11 -2 -2 -6 18 -7 15 -21 -8 -28 -14 -5
-19 -12 -15 -24 4 -12 -2 -21 -20 -29 -15 -7 -22 -17 -19 -25 3 -8 -1 -17 -9
-20 -13 -5 -34 -142 -29 -189 1 -10 -3 -18 -8 -18 -6 0 -10 -9 -10 -20 0 -11
-4 -20 -9 -20 -5 0 -14 -13 -21 -30 -7 -16 -19 -30 -26 -30 -8 0 -14 -6 -14
-14 0 -12 -7 -13 -32 -5 -34 9 -93 11 -70 2 19 -8 14 -23 -8 -23 -13 0 -20 -7
-20 -20 0 -24 -24 -49 -74 -74 -24 -13 -52 -42 -78 -82 -23 -35 -45 -61 -49
-58 -12 7 -67 -28 -118 -76 -69 -66 -95 -85 -133 -100 -18 -7 -40 -19 -49 -27
-8 -7 -25 -13 -36 -13 -12 0 -23 -6 -26 -13 -5 -13 -56 -31 -115 -42 -12 -2
-27 -7 -32 -10 -16 -10 -50 5 -50 21 0 8 -5 14 -11 14 -7 0 -10 -12 -7 -30 4
-24 1 -30 -14 -30 -10 0 -17 6 -16 13 3 12 -27 14 -67 4 -50 -12 -114 -17
-118 -10 -3 5 -52 10 -109 12 -56 1 -107 6 -113 10 -5 4 -21 8 -35 9 -54 5
-65 7 -77 19 -7 6 -13 18 -13 26 0 18 -47 28 -63 13 -7 -6 -33 -12 -60 -14
-26 -2 -77 -16 -114 -33 -46 -20 -93 -32 -154 -39 -48 -5 -100 -15 -116 -24
-31 -16 -73 -17 -323 -12 -138 3 -165 6 -230 30 -41 14 -93 28 -115 31 -61 7
-99 16 -112 27 -7 5 -21 7 -32 3 -10 -3 -22 -1 -26 5 -3 5 -15 10 -26 10 -10
0 -28 9 -39 20 -11 11 -24 20 -30 20 -5 0 -10 5 -10 11 0 14 -41 48 -58 49 -7
0 -15 7 -18 15 -4 8 -14 15 -24 15 -33 0 -77 30 -96 67 -23 44 -57 83 -73 83
-6 0 -11 5 -11 10 0 6 -11 10 -25 10 -18 0 -25 5 -25 20 0 11 -5 20 -11 20 -6
0 -24 9 -40 21 -16 11 -33 18 -38 15 -5 -3 -20 5 -32 19 -13 13 -30 25 -37 25
-8 0 -25 9 -39 20 -14 11 -32 20 -39 20 -7 0 -16 9 -19 20 -3 11 -11 20 -16
20 -6 0 -9 8 -8 18 5 33 -12 84 -27 78 -7 -3 -16 -1 -19 4 -4 6 -15 10 -26 10
-10 0 -19 5 -19 10 0 6 -6 10 -12 10 -7 0 -27 13 -44 30 -18 16 -44 32 -58 36
-27 6 -29 13 -28 77 0 20 -4 37 -9 37 -5 0 -9 11 -9 25 0 14 -4 25 -10 25 -5
0 -10 9 -10 20 0 11 -7 23 -15 26 -13 5 -13 9 -3 22 7 8 13 22 13 31 0 12 9
15 40 13 37 -3 43 0 70 38 17 23 38 51 49 62 10 11 14 23 9 27 -5 3 -12 13
-16 23 -4 10 -17 16 -40 16 -19 0 -43 5 -54 11 -25 13 -89 3 -104 -15 -9 -11
-9 -14 0 -14 7 0 9 -5 6 -10 -3 -6 -1 -10 4 -10 6 0 11 -7 11 -15 0 -8 6 -25
13 -36 9 -17 9 -23 0 -26 -7 -2 -9 -11 -6 -19 7 -18 -20 -9 -59 20 -21 14 -26
25 -22 42 4 16 0 24 -15 29 -24 7 -28 25 -6 25 8 0 15 5 15 10 0 6 -5 10 -11
10 -16 0 -7 52 13 71 9 10 27 20 40 24 12 4 29 12 36 17 6 6 25 8 41 5 20 -4
33 -1 44 11 28 31 26 88 -4 97 -11 4 -18 12 -16 18 4 13 0 18 -55 77 -29 31
-38 48 -38 76 0 41 15 74 34 74 8 0 16 10 19 22 10 37 -4 141 -24 176 -28 49
-25 88 6 96 14 4 25 11 25 16 0 6 14 10 30 10 17 0 30 4 30 10 0 5 -3 9 -7 9
-5 -1 -17 -1 -27 0 -18 1 -18 2 -2 20 10 11 15 25 11 30 -3 6 1 14 9 17 9 3
16 11 16 17 0 6 19 28 42 49 55 49 89 46 140 -13 20 -24 35 -46 32 -50 -2 -4
0 -19 6 -33 12 -32 45 -41 104 -28 33 7 46 6 46 -2 0 -6 4 -5 9 3 5 8 18 12
30 8 12 -3 24 -1 27 4 3 5 16 9 29 9 19 0 26 7 31 28 3 15 8 34 11 42 4 8 6
18 5 22 -2 11 22 25 66 36 35 8 51 7 80 -5 46 -19 172 -92 190 -110 7 -7 20
-13 28 -13 8 0 14 -4 14 -8 0 -22 96 -43 113 -25 13 12 -15 33 -44 33 -18 0
-29 5 -29 14 0 8 -7 16 -15 20 -8 3 -15 14 -15 25 0 11 -9 29 -21 39 -15 14
-18 26 -14 45 10 38 25 47 65 37 19 -4 31 -8 26 -9 -6 -1 -1 -8 10 -16 16 -12
16 -14 3 -15 -12 0 -15 -7 -12 -25 4 -19 14 -26 47 -33 22 -4 49 -6 58 -4 26
6 22 37 -7 60 -23 18 -24 22 -9 36 8 9 18 16 20 16 22 0 145 -34 149 -41 4 -5
16 -9 29 -9 12 0 26 -4 32 -9 5 -6 37 -19 72 -30 35 -11 82 -32 104 -47 37
-26 44 -28 139 -25 97 3 99 2 136 -28 28 -23 48 -31 76 -31 22 0 60 -11 86
-24 39 -19 50 -21 64 -11 20 15 216 10 258 -6 22 -9 26 -16 26 -50 0 -34 -6
-44 -43 -75 -24 -19 -49 -41 -57 -48 -37 -38 -69 -43 -249 -42 -167 1 -178 2
-200 23 -20 19 -38 23 -128 28 -82 4 -108 9 -118 22 -14 19 -39 26 -48 12 -3
-5 0 -9 5 -9 6 0 11 -4 11 -10 0 -16 -73 -12 -98 6 -12 8 -22 25 -22 37 -1 29
-17 48 -63 75 -52 30 -91 29 -106 -4 -12 -27 -46 -30 -46 -4 0 8 -10 16 -22
18 -19 3 -23 -2 -25 -25 -2 -51 3 -77 20 -89 13 -10 15 -18 7 -40 -8 -23 -19
-30 -65 -40 -51 -12 -132 -11 -172 2 -10 3 -26 0 -38 -6 -16 -9 -22 -8 -26 5
-3 8 -12 15 -20 15 -8 0 -22 13 -32 28 -10 17 -24 26 -35 24 -10 -2 -17 3 -17
12 0 23 -37 20 -45 -4 -14 -43 28 -100 88 -122 25 -9 27 -14 22 -42 -4 -17
-14 -36 -22 -43 -9 -7 -13 -19 -10 -27 4 -9 2 -18 -2 -20 -10 -7 -2 -56 9 -56
4 0 11 -12 15 -27 3 -15 11 -31 17 -34 6 -4 4 -16 -7 -33 -10 -16 -13 -26 -6
-26 7 0 10 -18 7 -52 -3 -41 -8 -53 -20 -52 -45 4 24 -32 74 -39 8 -1 27 -11
41 -22 l25 -19 -23 -41 c-27 -47 -29 -72 -7 -103 13 -18 19 -21 30 -11 11 9
14 8 14 -2 1 -10 4 -9 14 4 20 26 36 21 36 -13 0 -20 5 -30 15 -30 8 0 15 4
15 9 0 4 11 6 25 3 14 -2 25 -9 25 -14 0 -5 -9 -7 -19 -3 -11 3 -22 1 -26 -5
-5 -8 6 -11 36 -10 24 2 52 -1 61 -5 9 -4 63 0 120 8 57 8 147 15 201 15 58 0
103 5 111 11 9 7 35 10 67 7 111 -10 186 -8 239 7 62 17 504 32 494 16 -3 -5
0 -9 5 -9 6 0 11 4 11 8 0 5 80 7 178 4 162 -4 182 -2 232 17 60 23 105 27
115 11 8 -12 145 -10 145 2 0 4 6 8 13 8 7 0 19 10 27 21 8 12 21 27 28 35 9
9 9 15 1 20 -8 4 -3 12 12 20 l24 14 -22 6 c-24 7 -40 37 -24 42 6 2 11 11 11
20 0 22 30 41 77 48 21 3 46 10 56 15 9 5 17 7 17 4 0 -3 8 3 18 13 20 21 39
61 37 82 -1 8 -3 29 -3 46 l-2 32 -77 -4 c-43 -2 -99 -6 -124 -10 -41 -6 -47
-4 -52 15 -4 18 -10 20 -53 15 -70 -8 -199 35 -237 79 -47 54 -49 58 -43 73 4
9 -1 14 -14 14 -11 0 -20 5 -20 11 0 5 -4 7 -10 4 -5 -3 -10 -1 -10 4 0 6 -6
11 -14 11 -20 0 -37 25 -30 45 5 12 13 15 28 9 11 -4 39 -8 61 -9 22 -1 45 -3
50 -5 31 -8 112 20 148 50 10 8 20 13 22 10 3 -3 12 5 20 18 9 12 23 22 31 22
8 0 14 5 14 10 0 6 11 15 25 20 14 5 28 17 31 25 4 8 12 15 19 15 36 0 126 55
172 105 28 30 58 55 66 55 8 0 17 4 19 8 2 5 60 37 130 72 70 35 136 70 145
79 40 36 96 43 202 25z m656 -1894 c10 -16 -5 -70 -20 -70 -7 0 -24 -12 -37
-28 -36 -43 -93 -82 -135 -94 -21 -5 -45 -17 -54 -27 -30 -30 -69 -61 -69 -54
0 4 -7 -3 -16 -16 -11 -15 -23 -21 -35 -18 -11 3 -19 2 -19 -3 0 -4 -9 -10
-20 -13 -11 -3 -20 -9 -19 -14 4 -21 -2 -33 -17 -33 -9 0 -36 -18 -59 -39 -24
-22 -67 -52 -97 -67 -29 -15 -68 -40 -86 -55 -18 -16 -39 -29 -47 -29 -8 0
-24 -15 -36 -33 -24 -36 -99 -97 -119 -97 -12 0 -100 -40 -110 -50 -11 -11
-68 -38 -105 -50 -22 -7 -49 -17 -60 -23 -11 -6 -29 -12 -39 -14 -11 -2 -33
-10 -49 -18 -17 -8 -43 -15 -59 -15 -16 0 -39 -5 -50 -11 -11 -6 -41 -12 -67
-13 -25 -2 -62 -10 -81 -18 -19 -9 -49 -16 -67 -16 -17 -1 -42 -6 -54 -12 -14
-8 -42 -10 -78 -6 -41 5 -62 3 -76 -8 -19 -13 -81 -13 -93 -1 -8 8 17 55 29
55 6 0 28 14 49 30 21 16 47 30 59 30 12 0 24 6 27 14 3 8 28 23 55 32 27 10
51 26 55 36 3 10 20 20 42 24 20 4 42 13 47 20 6 7 35 22 65 35 30 12 62 28
71 36 8 7 22 13 31 13 8 0 23 9 33 20 10 11 22 17 26 14 5 -3 9 -1 9 3 0 10
112 73 129 73 6 0 30 14 53 30 22 17 49 30 59 30 10 0 20 4 24 9 6 10 144 80
200 101 17 7 43 14 59 17 30 5 59 16 86 32 8 5 49 21 90 35 41 15 93 36 115
46 22 11 44 20 49 20 5 0 23 11 40 23 37 28 174 97 193 97 7 0 13 5 13 10 0 6
6 10 13 10 6 0 32 14 57 30 46 30 84 38 95 20z m-4909 -837 c21 -14 57 -39 79
-54 22 -15 48 -37 57 -48 10 -12 26 -21 37 -21 11 0 27 -3 36 -6 13 -6 14 -9
3 -16 -9 -7 -2 -8 19 -4 38 6 63 -1 63 -18 0 -12 66 -46 90 -46 7 0 10 -3 7
-6 -15 -16 48 -48 102 -51 31 -3 60 -9 65 -14 6 -5 18 -9 28 -9 29 0 82 -60
94 -105 6 -22 14 -49 18 -60 8 -20 7 -20 -8 -1 -11 13 -16 15 -16 6 0 -7 -3
-10 -7 -7 -3 4 -16 1 -28 -7 -17 -11 -31 -12 -61 -4 -21 5 -51 12 -66 15 -16
3 -28 9 -28 14 0 5 -5 9 -11 9 -18 0 -70 41 -64 50 3 5 -3 14 -14 19 -12 7
-17 18 -14 30 3 13 -2 21 -16 26 -12 3 -21 10 -21 15 0 8 -68 25 -85 21 -32
-8 -135 -9 -140 -1 -5 8 -43 16 -125 25 -49 6 -94 17 -100 24 -3 4 -29 12 -58
19 -37 8 -65 23 -90 47 -20 19 -40 35 -44 35 -12 0 -1 72 13 81 15 9 93 27
147 35 18 2 45 11 60 19 35 19 33 19 78 -12z m1011 -58 c18 -6 20 -10 10 -21
-7 -7 -18 -20 -25 -28 -8 -11 -22 -14 -42 -9 -17 3 -36 0 -44 -6 -11 -10 -17
-8 -25 6 -7 12 -13 14 -18 7 -9 -12 -213 -16 -213 -4 0 20 41 41 84 42 25 0
46 4 46 9 0 15 182 19 227 4z m676 -194 c16 -6 43 -13 62 -15 71 -9 100 -31
55 -43 -11 -3 -20 -8 -20 -12 0 -3 -11 -7 -25 -7 -14 -1 -25 2 -25 7 0 5 -5 9
-11 9 -5 0 -7 -4 -4 -10 3 -5 -4 -10 -17 -10 -13 1 -46 -2 -75 -6 -29 -3 -60
-3 -70 0 -10 4 -18 7 -18 6 0 -1 -12 3 -27 9 -16 6 -28 7 -28 2 0 -14 -67 5
-86 23 -13 14 -14 22 -6 41 11 23 12 24 139 20 71 -2 141 -9 156 -14z m1167
-76 c5 3 11 1 15 -5 3 -5 -1 -10 -10 -10 -12 0 -15 -5 -9 -22 6 -20 5 -21 -9
-10 -13 11 -16 9 -22 -17 -5 -25 -12 -31 -43 -37 -57 -9 -71 -14 -87 -31 -9
-9 -37 -16 -68 -18 -29 -2 -81 -8 -115 -14 -60 -10 -66 -10 -95 12 -41 29 -76
47 -92 47 -7 0 -25 12 -40 26 -28 26 -28 27 -9 41 13 9 43 13 95 12 46 -1 85
3 100 11 25 14 170 12 184 -2 9 -8 159 19 163 31 2 7 9 6 19 -4 8 -8 18 -13
23 -10z"/>
<path d="M3935 9861 c-5 -18 -9 -20 -16 -10 -14 23 -22 2 -14 -38 5 -21 8 -41
7 -44 -1 -4 8 -5 19 -2 27 7 40 -14 28 -45 -8 -22 -6 -29 17 -49 26 -22 26
-23 5 -23 -12 0 -19 -4 -16 -10 11 -17 60 -11 78 11 19 21 15 59 -5 59 -6 0
-8 3 -4 7 3 4 -4 13 -16 20 -16 9 -18 12 -7 13 12 0 15 9 14 37 -2 30 -8 40
-29 48 -14 6 -32 19 -40 30 -13 18 -14 18 -21 -4z"/>
<path d="M750 7948 c-9 -8 -32 -18 -51 -22 -23 -4 -40 -14 -47 -29 -6 -12 -11
-16 -11 -8 -1 11 -4 11 -16 1 -11 -9 -35 -11 -88 -5 -137 14 -168 12 -185 -13
-8 -12 -20 -22 -26 -22 -8 0 -11 -11 -8 -30 8 -53 98 -102 140 -76 6 4 20 2
31 -3 24 -13 114 12 144 40 11 10 28 19 36 19 13 0 13 2 2 9 -9 6 2 11 35 15
93 13 134 14 134 5 0 -5 5 -9 10 -9 18 0 10 39 -10 50 -12 6 -25 22 -30 36 -5
13 -16 24 -24 24 -8 0 -16 8 -18 17 -3 15 -5 15 -18 1z"/>
</g>
</svg>
